<!DOCTYPE svg PUBLIC "-//W3C//DTD SVG 20010904//EN" "http://www.w3.org/TR/2001/REC-SVG-20010904/DTD/svg10.dtd">
<svg version="1.0" xmlns="http://www.w3.org/2000/svg" width="158px" height="158px" viewBox="0 0 1580 1580" preserveAspectRatio="xMidYMid meet">
<g id="layer1" fill="#ffcc54" stroke="none">
 <path d="M590 1559 c-283 -74 -497 -289 -570 -573 -28 -109 -28 -283 0 -392 73 -286 288 -501 574 -574 109 -28 283 -28 392 0 286 73 501 288 574 574 28 109 28 283 0 392 -73 286 -288 501 -574 574 -107 27 -290 27 -396 -1z m380 -90 c308 -82 521 -359 521 -679 0 -391 -310 -701 -701 -701 -392 0 -701 312 -701 706 1 457 437 791 881 674z"/>
 <path d="M738 1416 c-10 -7 -22 -24 -27 -38 -6 -16 -20 -27 -38 -31 -16 -3 -55 -31 -87 -62 l-59 -55 6 -61 c7 -82 48 -160 125 -236 35 -35 67 -63 71 -63 20 0 13 14 -31 61 -56 60 -108 159 -114 220 -4 40 -3 37 19 -26 28 -84 78 -162 126 -198 73 -55 79 -28 11 42 -28 28 -61 76 -74 105 -23 51 -46 139 -46 173 0 30 10 7 20 -47 6 -29 21 -77 34 -105 24 -53 92 -129 107 -119 17 10 9 34 -22 61 -51 45 -79 116 -78 198 l2 70 7 -60 c5 -33 13 -73 19 -88 15 -38 61 -98 71 -92 14 9 5 62 -14 80 -10 10 -22 29 -27 42 -12 33 -11 124 2 143 8 12 9 10 4 -8 -6 -21 21 -139 30 -130 7 7 14 68 14 136 1 39 5 61 11 57 6 -3 10 -51 10 -108 1 -101 1 -102 17 -72 11 19 17 54 18 92 0 44 3 57 9 45 6 -9 10 -47 10 -83 1 -57 -3 -70 -26 -102 -17 -22 -28 -48 -28 -68 0 -32 0 -32 21 -13 34 31 60 92 69 163 l9 66 -3 -86 c-4 -94 -19 -133 -66 -176 -28 -24 -42 -73 -21 -73 14 0 78 76 100 118 11 21 27 70 35 108 l16 69 -4 -59 c-7 -93 -92 -250 -144 -267 -8 -3 -12 -15 -10 -28 3 -22 4 -22 49 12 47 36 96 105 119 167 19 51 31 60 19 14 -18 -65 -49 -115 -107 -176 -73 -77 -42 -79 38 -2 95 91 154 227 130 300 -7 19 -15 34 -20 34 -4 0 -29 20 -56 45 -26 25 -55 45 -65 45 -10 0 -25 13 -34 30 -8 16 -24 34 -34 40 -27 14 -92 12 -113 -4z"/>
 <path d="M325 1208 c-29 -17 -43 -38 -50 -78 -4 -19 -17 -46 -29 -60 -13 -14 -31 -48 -40 -77 -29 -93 -18 -125 40 -116 18 3 87 -5 153 -18 92 -17 125 -20 143 -12 l23 11 -28 11 c-16 6 -49 11 -75 11 -48 0 -127 31 -183 71 -47 33 -27 33 29 0 56 -33 111 -51 156 -51 28 0 29 1 12 19 -10 11 -37 23 -59 27 -31 5 -54 18 -86 50 -24 25 -41 47 -38 50 3 4 19 -8 34 -26 23 -27 76 -60 98 -60 4 0 -9 19 -28 43 -41 50 -72 107 -58 107 6 0 17 -15 26 -32 8 -18 31 -51 51 -73 l35 -40 -4 53 c-3 33 -12 64 -26 82 -25 34 -27 48 -5 29 25 -21 51 -80 59 -136 4 -31 14 -58 26 -69 18 -17 19 -16 19 17 0 19 -11 65 -25 103 -13 39 -23 72 -20 74 11 12 55 -104 61 -162 5 -52 11 -69 27 -78 19 -10 20 -8 14 58 -3 46 -14 85 -31 117 -14 27 -28 68 -32 93 -6 42 -24 58 -39 34 -4 -6 -17 -2 -33 10 -35 24 -91 33 -117 18z"/>
 <path d="M1186 1210 c-17 -5 -34 -16 -38 -25 -7 -12 -14 -13 -29 -5 -27 15 -35 7 -42 -39 -3 -22 -17 -65 -32 -97 -15 -32 -30 -83 -33 -116 l-5 -59 25 12 c23 10 26 19 31 78 4 60 41 171 52 159 3 -3 -4 -30 -14 -61 -22 -63 -29 -130 -16 -137 10 -5 14 5 40 100 16 59 49 120 65 120 5 0 -1 -16 -15 -36 -23 -34 -44 -119 -32 -131 9 -8 55 47 83 100 14 27 28 47 30 44 7 -7 -34 -86 -63 -121 -47 -56 5 -40 70 22 20 20 37 31 37 25 0 -23 -74 -83 -114 -94 -53 -14 -69 -22 -74 -39 -12 -35 182 25 215 68 11 14 12 14 8 1 -15 -42 -137 -99 -213 -99 -26 -1 -58 -7 -72 -15 l-25 -13 30 -8 c19 -5 69 1 141 15 70 15 123 21 143 16 41 -9 61 8 61 51 0 45 -37 142 -59 154 -11 6 -20 25 -24 51 -9 69 -62 100 -131 79z"/>
 <path d="M595 925 c9 -71 11 -75 40 -75 40 0 34 47 -11 91 l-36 34 7 -50z"/>
 <path d="M968 943 c-37 -40 -42 -93 -8 -93 26 0 42 32 38 81 l-3 41 -27 -29z"/>
 <path d="M680 853 c0 -25 1 -26 16 -11 9 9 13 21 10 27 -13 20 -26 11 -26 -16z"/>
 <path d="M891 871 c-15 -9 -8 -41 8 -41 15 0 23 18 14 34 -5 10 -13 12 -22 7z"/>
 <path d="M724 836 c-53 -53 -42 -116 27 -152 40 -20 82 -10 114 28 40 47 28 116 -26 144 -45 23 -78 17 -115 -20z"/>
 <path d="M199 831 c-46 -47 -37 -106 23 -137 28 -15 38 -15 122 1 90 17 260 50 304 60 28 7 29 35 1 35 -11 0 -97 16 -190 35 -209 43 -222 43 -260 6z"/>
 <path d="M1120 823 c-91 -19 -175 -37 -188 -39 -13 -3 -22 -10 -19 -17 5 -15 397 -92 429 -84 70 18 91 96 39 148 -37 37 -51 36 -261 -8z"/>
 <path d="M576 832 c-3 -6 7 -12 22 -15 25 -5 41 -2 31 7 -12 10 -48 16 -53 8z"/>
 <path d="M978 833 c-10 -2 -18 -9 -18 -15 0 -6 10 -8 23 -4 12 3 29 6 37 6 13 0 13 1 0 10 -8 5 -17 9 -20 9 -3 -1 -13 -3 -22 -6z"/>
 <path d="M595 723 c-38 -8 -130 -26 -203 -40 -119 -24 -136 -30 -158 -56 -36 -43 -29 -90 20 -129 36 -30 66 -21 171 49 55 36 109 71 120 77 59 33 135 91 135 102 0 8 -3 13 -7 13 -5 -1 -39 -8 -78 -16z"/>
 <path d="M901 718 c0 -7 52 -47 116 -88 64 -41 142 -92 173 -112 71 -47 102 -48 141 -7 38 41 39 86 2 121 -29 26 -107 47 -313 83 -105 18 -120 18 -119 3z"/>
 <path d="M635 658 c-33 -21 -107 -70 -165 -107 -58 -38 -113 -78 -123 -89 -37 -41 -15 -122 39 -142 60 -23 86 1 238 228 50 75 85 137 80 141 -5 5 -36 -9 -69 -31z"/>
 <path d="M870 677 c0 -7 32 -60 71 -117 169 -250 181 -261 243 -240 33 11 66 54 66 88 0 10 -10 32 -22 47 -21 27 -329 235 -348 235 -6 0 -10 -6 -10 -13z"/>
 <path d="M688 608 c-24 -36 -76 -113 -116 -172 -39 -59 -75 -118 -78 -131 -8 -32 21 -83 52 -91 64 -16 133 20 134 70 0 11 16 98 36 194 42 205 37 227 -28 130z"/>
 <path d="M820 656 c0 -17 82 -395 89 -412 13 -29 76 -45 115 -29 31 13 55 48 56 81 0 11 -37 75 -82 143 -46 67 -87 130 -93 140 -28 46 -58 81 -71 81 -8 0 -14 -2 -14 -4z"/>
 <path d="M752 548 c-12 -57 -30 -145 -41 -197 -26 -118 -26 -113 5 -150 21 -26 33 -31 68 -31 47 0 82 24 92 64 3 13 -13 109 -35 215 -23 106 -41 194 -41 196 0 3 -6 5 -14 5 -9 0 -20 -33 -34 -102z"/>
 </g>

</svg>